<svg height="512" viewBox="0 0 512 512" width="512" xmlns="http://www.w3.org/2000/svg" xmlns:xlink="http://www.w3.org/1999/xlink"><linearGradient id="New_Gradient_Swatch_18" gradientUnits="userSpaceOnUse" x1="91.524" x2="244.119" y1="548.176" y2="395.581"><stop offset="0" stop-color="#f5c2c2"/><stop offset="1" stop-color="#fae1e1"/></linearGradient><linearGradient id="New_Gradient_Swatch_6" gradientUnits="userSpaceOnUse" x1="120.744" x2="391.995" y1="592.374" y2="321.123"><stop offset="0" stop-color="#e3dddd"/><stop offset="1" stop-color="#fff"/></linearGradient><linearGradient id="New_Gradient_Swatch_7" gradientUnits="userSpaceOnUse" x1="319.391" x2="457.926" y1="525.587" y2="387.053"><stop offset="0" stop-color="#816767"/><stop offset="1" stop-color="#9d8989"/></linearGradient><linearGradient id="New_Gradient_Swatch_7-2" gradientTransform="matrix(-1 0 0 1 512 0)" x1="319.391" x2="457.926" xlink:href="#New_Gradient_Swatch_7" y1="525.587" y2="387.053"/><linearGradient id="New_Gradient_Swatch_18-2" x1="319.893" x2="387.318" xlink:href="#New_Gradient_Swatch_18" y1="237.72" y2="170.296"/><linearGradient id="New_Gradient_Swatch_18-3" x1="129.414" x2="188.854" xlink:href="#New_Gradient_Swatch_18" y1="233.728" y2="174.288"/><linearGradient id="New_Gradient_Swatch_8" gradientUnits="userSpaceOnUse" x1="162.874" x2="349.865" y1="279.517" y2="92.525"><stop offset="0" stop-color="#f7d1d1"/><stop offset="1" stop-color="#fcf0f0"/></linearGradient><linearGradient id="New_Gradient_Swatch_10" gradientUnits="userSpaceOnUse" x1="211.895" x2="300.105" y1="438.52" y2="350.31"><stop offset="0" stop-color="#72c2c8"/><stop offset="1" stop-color="#b8e1e3"/></linearGradient><linearGradient id="New_Gradient_Swatch_10-2" x1="242.343" x2="269.657" xlink:href="#New_Gradient_Swatch_10" y1="401.418" y2="374.104"/><linearGradient id="New_Gradient_Swatch_14" gradientUnits="userSpaceOnUse" x1="122.626" x2="174.112" y1="184.743" y2="133.257"><stop offset="0" stop-color="#f4c361"/><stop offset="1" stop-color="#f9dea7"/></linearGradient><linearGradient id="New_Gradient_Swatch_14-2" x1="184.001" x2="339.428" xlink:href="#New_Gradient_Swatch_14" y1="179.184" y2="23.757"/><g id="_02-groom" data-name="02-groom"><g id="gradient"><path d="m316.37 256a12 12 0 0 0 -12-12h-96a12 12 0 0 0 -12 12v87.072l-116.37 72.928h336l-99.63-72.928z" fill="url(#New_Gradient_Swatch_18)"/><path d="m476.37 423.809a43.729 43.729 0 0 0 -31.357-42.144l-128.643-38.593s-12.37 24.928-60.37 24.928-59.63-24.928-59.63-24.928l-128.644 38.593a43.729 43.729 0 0 0 -31.356 42.144v84.191h440z" fill="url(#New_Gradient_Swatch_6)"/><path d="m445.013 381.665-93.147-27.944-50.066 154.279h174.57v-84.191a43.729 43.729 0 0 0 -31.357-42.144z" fill="url(#New_Gradient_Swatch_7)"/><path d="m66.987 381.665 93.147-27.944 50.066 154.279h-174.57v-84.191a43.729 43.729 0 0 1 31.357-42.144z" fill="url(#New_Gradient_Swatch_7-2)"/><path d="m389.052 172.03c-8.306-8.24-20.075-8.15-32.544-8.051-1.354.01-2.736.021-4.138.021a44 44 0 0 0 0 88c27.3 0 44-38.847 44-60 0-8.433-2.462-15.152-7.318-19.97z" fill="url(#New_Gradient_Swatch_18-2)"/><path d="m160.37 164c-1.4 0-2.785-.011-4.139-.021-12.456-.1-24.238-.19-32.544 8.051-4.855 4.818-7.317 11.537-7.317 19.97 0 21.153 16.7 60 44 60a44 44 0 0 0 0-88z" fill="url(#New_Gradient_Swatch_18-3)"/><path d="m352.37 100h-192a12 12 0 0 0 -12 12v112c0 30.709 14.357 59.3 40.427 80.505 20.535 16.7 47.058 27.5 67.573 27.5s47.038-10.792 67.572-27.5c26.07-21.2 40.428-49.8 40.428-80.5v-112.005a12 12 0 0 0 -12-12z" fill="url(#New_Gradient_Swatch_8)"/><circle cx="308.37" cy="188" fill="#816767" r="12"/><circle cx="204.37" cy="188" fill="#816767" r="12"/><path d="m256 252h-16a12 12 0 0 1 -11.384-15.795l16-48a12 12 0 1 1 22.768 7.59l-10.74 32.222a12 12 0 0 1 -.644 23.983z" fill="#f2b3b3"/><path d="m228.292 272a31.992 31.992 0 0 0 55.416 0z" fill="#fcf0f0"/><circle cx="256" cy="436" fill="#b9abab" r="12"/><circle cx="256" cy="484" fill="#b9abab" r="12"/><path d="m320.616 370.972a13.913 13.913 0 0 0 -12.012-2.547l-52.604 13.151-52.6-13.151a14 14 0 0 0 -17.4 13.582v24.81a13.981 13.981 0 0 0 20.261 12.522l49.739-24.87 49.739 24.87a14 14 0 0 0 20.261-12.522v-24.81a13.913 13.913 0 0 0 -5.384-11.035z" fill="url(#New_Gradient_Swatch_10)"/><rect fill="url(#New_Gradient_Swatch_10-2)" height="32" rx="8" width="32" x="240" y="371.761"/><path d="m163.053 122.633-32-16a6 6 0 0 0 -8.683 5.367v39a6 6 0 0 0 .65 2.717l32 63a6 6 0 0 0 11.35-2.717v-86a6 6 0 0 0 -3.317-5.367z" fill="url(#New_Gradient_Swatch_14)"/><path d="m350.505 34.848c-19.905-20.469-46.319-30.848-78.505-30.848-51.207 0-83.971 27.768-107.9 48.043-13.9 11.782-25.9 21.957-36.1 21.957-18.686 0-26.522-12.54-26.823-13.033a6 6 0 0 0 -11.177 3.033c0 70.141 140.2 86 166 86 37.454 0 74.56-9.36 90.37-13.9v77.9a6 6 0 0 0 11.349 2.717l32-63a5.986 5.986 0 0 0 .648-2.55c.084-2.99 1.568-73.717-39.862-116.319z" fill="url(#New_Gradient_Swatch_14-2)"/></g></g></svg>